<svg width="100" height="100" viewBox="0 0 100 100" fill="none" xmlns="http://www.w3.org/2000/svg">
<path d="M50 50C61.5059 50 70.8333 40.6726 70.8333 29.1667C70.8333 17.6608 61.5059 8.33337 50 8.33337C38.4941 8.33337 29.1667 17.6608 29.1667 29.1667C29.1667 40.6726 38.4941 50 50 50Z" stroke="#A32F2D" stroke-width="12"/>
<path d="M70.8333 58.3334H72.3C75.3461 58.3342 78.2872 59.4474 80.5705 61.4637C82.8538 63.48 84.3223 66.2607 84.7 69.2834L86.3292 82.3C86.4757 83.4727 86.3711 84.663 86.0225 85.7922C85.6738 86.9213 85.089 87.9634 84.3068 88.8492C83.5246 89.735 82.5629 90.4443 81.4856 90.9301C80.4083 91.4159 79.2401 91.667 78.0583 91.6667H21.9417C20.7599 91.667 19.5916 91.4159 18.5143 90.9301C17.4371 90.4443 16.4754 89.735 15.6932 88.8492C14.911 87.9634 14.3262 86.9213 13.9775 85.7922C13.6288 84.663 13.5243 83.4727 13.6708 82.3L15.2958 69.2834C15.6737 66.2593 17.1434 63.4775 19.4285 61.461C21.7135 59.4444 24.6566 58.3322 27.7042 58.3334H29.1667" stroke="#A32F2D" stroke-width="12" stroke-linecap="round" stroke-linejoin="round"/>
</svg>
