<svg width="97" height="114" viewBox="0 0 97 114" fill="none" xmlns="http://www.w3.org/2000/svg">
<path fill-rule="evenodd" clip-rule="evenodd" d="M6.66041e-08 56.3333C6.66041e-08 44.8406 4.56546 33.8186 12.692 25.692C20.8186 17.5655 31.8406 13 43.3333 13C54.826 13 65.848 17.5655 73.9746 25.692C82.1012 33.8186 86.6667 44.8406 86.6667 56.3333V100.24C86.6669 102.764 85.9185 105.232 84.516 107.331C83.1135 109.43 81.12 111.065 78.7877 112.031C76.4554 112.996 73.8891 113.249 71.4135 112.755C68.9379 112.262 66.6641 111.046 64.88 109.26L64.3067 108.693C62.7989 107.184 60.7535 106.335 58.62 106.333H58.0467C55.9133 106.333 53.8667 107.18 52.36 108.693L51.38 109.667C49.2459 111.801 46.3514 113 43.3333 113C40.3153 113 37.4208 111.801 35.2867 109.667L34.3067 108.693C32.7989 107.184 30.7535 106.335 28.62 106.333H28.0467C25.9133 106.333 23.8667 107.18 22.36 108.693L21.7867 109.26C20.0025 111.046 17.7288 112.262 15.2532 112.755C12.7776 113.249 10.2113 112.996 7.87896 112.031C5.54666 111.065 3.55317 109.43 2.15069 107.331C0.748201 105.232 -0.000257789 102.764 6.66041e-08 100.24V56.3333Z" fill="#B5B5BF"/>
<circle cx="65.5" cy="42.2014" r="7.5" fill="#53535F"/>
<circle cx="38.5" cy="42.2014" r="7.5" fill="#53535F"/>
<path d="M31.7867 96.2667L32.36 95.6933L27.64 90.9733L27.0733 91.5467L31.7867 96.26V96.2667ZM38.62 93.3333V86.6667H38.0467V93.3333H38.62ZM44.3067 95.6933L45.2867 96.6667L50 91.9533L49.0267 90.9733L44.3067 95.6933ZM61.38 96.6667L62.36 95.6933L57.64 90.9733L56.6667 91.9533L61.38 96.6667ZM68.0467 93.3333H68.62V86.6667H68.0467V93.3333ZM74.3133 95.6933L74.88 96.26L79.5933 91.5467L79.0267 90.9733L74.3067 95.6933H74.3133ZM83.9067 100C87.2908 100 90.5364 98.6556 92.9294 96.2627C95.3223 93.8697 96.6667 90.6242 96.6667 87.24H90C90 90.6067 87.2667 93.3333 83.9067 93.3333V100ZM74.88 96.2667C77.28 98.6533 80.52 100 83.9067 100V93.3333C83.1056 93.3337 82.3122 93.1761 81.5721 92.8695C80.832 92.5629 80.1595 92.1134 79.5933 91.5467L74.88 96.26V96.2667ZM68.6133 93.3333C70.7533 93.3333 72.8 94.18 74.3067 95.6933L79.0267 90.9733C77.6598 89.6072 76.0373 88.5238 74.2517 87.7848C72.4661 87.0459 70.5525 86.6659 68.62 86.6667V93.3333H68.6133ZM62.36 95.6933C63.8667 94.18 65.9133 93.3333 68.0467 93.3333V86.6667C64.1467 86.6667 60.4 88.2133 57.6467 90.9733L62.36 95.6933ZM53.3333 100C56.3533 100 59.2467 98.8 61.38 96.6667L56.6667 91.9533C56.2289 92.391 55.7092 92.7381 55.1373 92.9749C54.5653 93.2117 53.9523 93.3335 53.3333 93.3333V100ZM45.2867 96.6667C47.42 98.8 50.3133 100 53.3333 100V93.3333C52.7143 93.3335 52.1013 93.2117 51.5294 92.9749C50.9575 92.7381 50.4378 92.391 50 91.9533L45.2867 96.6667ZM38.62 93.3333C40.7533 93.3333 42.8 94.18 44.3067 95.6933L49.0267 90.9733C47.6598 89.6072 46.0373 88.5238 44.2517 87.7848C42.4661 87.0459 40.5525 86.6659 38.62 86.6667V93.3333ZM32.3533 95.6933C33.8667 94.18 35.9133 93.3333 38.0467 93.3333V86.6667C34.1467 86.6667 30.4 88.2133 27.6467 90.9733L32.36 95.6933H32.3533ZM22.7667 100C26.1533 100 29.4 98.6533 31.7933 96.2667L27.08 91.5467C26.5138 92.1134 25.8414 92.5629 25.1012 92.8695C24.3611 93.1761 23.5678 93.3337 22.7667 93.3333V100ZM10 87.24C10 94.2867 15.7133 100 22.76 100V93.3333C21.1439 93.3333 19.5941 92.6914 18.4514 91.5486C17.3086 90.4059 16.6667 88.8561 16.6667 87.24H10ZM53.3333 6.66667C63.0579 6.66667 72.3842 10.5298 79.2606 17.4061C86.1369 24.2824 90 33.6087 90 43.3333H96.6667C96.6667 37.6427 95.5458 32.0078 93.3681 26.7504C91.1904 21.4929 87.9985 16.7159 83.9746 12.692C79.9508 8.66817 75.1737 5.47626 69.9163 3.29855C64.6588 1.12085 59.0239 0 53.3333 0V6.66667ZM16.6667 43.3333C16.6667 33.6087 20.5298 24.2824 27.4061 17.4061C34.2824 10.5298 43.6087 6.66667 53.3333 6.66667V0C41.8406 0 30.8186 4.56546 22.692 12.692C14.5655 20.8186 10 31.8406 10 43.3333H16.6667ZM10 43.3333V87.24H16.6667V43.3333H10ZM96.6667 87.24V43.3333H90V87.24H96.6667Z" fill="#53535F"/>
</svg>
