<svg width="100" height="100" viewBox="0 0 100 100" fill="none" xmlns="http://www.w3.org/2000/svg">
<path d="M83.3333 8.33337H33.3333C31.1232 8.33337 29.0036 9.21135 27.4408 10.7742C25.878 12.337 25 14.4566 25 16.6667V66.6667C25 68.8768 25.878 70.9965 27.4408 72.5593C29.0036 74.1221 31.1232 75 33.3333 75H83.3333C85.5435 75 87.6631 74.1221 89.2259 72.5593C90.7887 70.9965 91.6667 68.8768 91.6667 66.6667V16.6667C91.6667 14.4566 90.7887 12.337 89.2259 10.7742C87.6631 9.21135 85.5435 8.33337 83.3333 8.33337ZM58.3333 18.75C61.096 18.75 63.7455 19.8475 65.699 21.801C67.6525 23.7545 68.75 26.404 68.75 29.1667C68.75 31.9294 67.6525 34.5789 65.699 36.5324C63.7455 38.4859 61.096 39.5834 58.3333 39.5834C55.5707 39.5834 52.9211 38.4859 50.9676 36.5324C49.0141 34.5789 47.9167 31.9294 47.9167 29.1667C47.9167 26.404 49.0141 23.7545 50.9676 21.801C52.9211 19.8475 55.5707 18.75 58.3333 18.75V18.75ZM79.1667 62.5H37.5V61.4584C37.5 53.7542 46.8917 45.8334 58.3333 45.8334C69.775 45.8334 79.1667 53.7542 79.1667 61.4584V62.5Z" fill="#53535F"/>
<path d="M16.6666 33.3334H8.33331V83.3334C8.33331 87.9292 12.0708 91.6667 16.6666 91.6667H66.6666V83.3334H16.6666V33.3334Z" fill="#53535F"/>
</svg>
