<svg width="100" height="100" viewBox="0 0 100 100" fill="#fff" xmlns="http://www.w3.org/2000/svg">
<path fill-rule="evenodd" clip-rule="evenodd" d="M10.4167 25.3792L30.0833 45.0458L50 25.1292L69.9208 45.0458L89.5833 25.3833V62.3708C89.5833 65.686 88.2664 68.8654 85.9222 71.2097C83.578 73.5539 80.3985 74.8708 77.0833 74.8708H22.9167C19.6015 74.8708 16.422 73.5539 14.0778 71.2097C11.7336 68.8654 10.4167 65.686 10.4167 62.3708V25.3792ZM81.25 45.4542V62.3708C81.25 63.4759 80.811 64.5357 80.0296 65.3171C79.2482 66.0985 78.1884 66.5375 77.0833 66.5375H22.9167C21.8116 66.5375 20.7518 66.0985 19.9704 65.3171C19.189 64.5357 18.75 63.4759 18.75 62.3708V45.45L30.0833 56.7833L50 36.8666L69.9208 56.7833L81.25 45.45V45.4542Z" fill="#111111"/>
</svg>
