<svg width="100" height="100" viewBox="0 0 100 100" fill="none" xmlns="http://www.w3.org/2000/svg">
<path d="M90.8203 84.1797L74.9219 68.2813C80.0566 61.7282 82.836 53.6376 82.8125 45.3125C82.8125 37.8957 80.6131 30.6455 76.4926 24.4786C72.372 18.3118 66.5153 13.5053 59.6631 10.667C52.8109 7.82875 45.2709 7.08612 37.9966 8.53307C30.7223 9.98001 24.0405 13.5515 18.796 18.796C13.5515 24.0405 9.97998 30.7223 8.53304 37.9966C7.08609 45.2709 7.82872 52.8109 10.667 59.6631C13.5053 66.5154 18.3118 72.3721 24.4786 76.4926C30.6454 80.6132 37.8957 82.8125 45.3125 82.8125C53.6376 82.836 61.7282 80.0566 68.2812 74.9219L84.1797 90.8203C85.0642 91.6934 86.2571 92.183 87.5 92.183C88.7429 92.183 89.9357 91.6934 90.8203 90.8203C91.2573 90.3848 91.604 89.8674 91.8406 89.2976C92.0772 88.7278 92.199 88.117 92.199 87.5C92.199 86.8831 92.0772 86.2722 91.8406 85.7024C91.604 85.1327 91.2573 84.6152 90.8203 84.1797V84.1797ZM17.1875 45.3125C17.1875 39.7499 18.837 34.3122 21.9274 29.6871C25.0178 25.062 29.4103 21.4571 34.5495 19.3284C39.6887 17.1997 45.3437 16.6427 50.7994 17.7279C56.2551 18.8131 61.2665 21.4918 65.1999 25.4251C69.1332 29.3585 71.8119 34.3699 72.8971 39.8256C73.9823 45.2813 73.4253 50.9363 71.2966 56.0755C69.1679 61.2147 65.563 65.6072 60.9379 68.6976C56.3128 71.788 50.8751 73.4375 45.3125 73.4375C37.8564 73.4272 30.7087 70.4607 25.4365 65.1885C20.1643 59.9163 17.1978 52.7686 17.1875 45.3125Z" fill="#111111"/>
</svg>
